<?xml version="1.0" encoding="utf-8"?>
<!-- Generator: Adobe Illustrator 26.1.0, SVG Export Plug-In . SVG Version: 6.00 Build 0)  -->
<svg version="1.1" id="Layer_1" xmlns="http://www.w3.org/2000/svg" xmlns:xlink="http://www.w3.org/1999/xlink" x="0px" y="0px"
	 viewBox="0 0 329.28 109.6" style="enable-background:new 0 0 329.28 109.6;" xml:space="preserve">
<style type="text/css">
	.st0{fill:#FDFDFD;}
	.st1{fill:#222937;}
	.st2{fill:#F84D14;}
</style>
<g>
	<path class="st0" d="M329.4,108.57c0,0.88-0.18,1.11-1.09,1.11c-54.54-0.03-109.09-0.02-163.63-0.02s-109.09,0-163.63,0.03
		c-0.99,0-1.16-0.22-1.16-1.18c0.03-35.78,0.03-71.55,0-107.33C-0.12,0.21,0.05,0,1.04,0c109.09,0.03,218.18,0.03,327.27,0
		 M131.52,29.19c-0.4-0.19-0.4-0.51-0.5-0.76c-2.73-6.43-5.46-12.86-8.15-19.31c-0.31-0.74-0.67-1.01-1.49-0.99
		c-2.12,0.07-4.24,0.06-6.35,0.01c-0.81-0.02-1.09,0.17-1.09,1.04c0.03,9.91,0.03,19.82,0,29.73c0,0.72,0.15,0.98,0.92,0.95
		c1.48-0.06,2.96-0.07,4.44,0c0.89,0.05,1.13-0.2,1.13-1.11c-0.05-6.15-0.03-12.31-0.02-18.46c0-0.22-0.21-0.56,0.27-0.69
		c2.43,5.74,4.85,11.47,7.28,17.2c0.42,0.99,0.62,2.36,1.38,2.84c0.81,0.51,2.16,0.11,3.26,0.22c0.84,0.08,1.16-0.27,1.47-1
		c2.5-6.01,5.04-12,7.58-18c0.19-0.45,0.4-0.9,0.6-1.35c0.08,0.02,0.16,0.03,0.24,0.05c0,0.34,0,0.68,0,1.01
		c0,6.07,0.02,12.15-0.02,18.22c0,0.83,0.18,1.11,1.05,1.07c1.52-0.07,3.04-0.06,4.56,0c0.76,0.03,0.92-0.22,0.92-0.94
		c-0.02-9.95-0.02-19.9,0-29.85c0-0.76-0.23-0.94-0.95-0.93c-2.2,0.04-4.4,0.07-6.59-0.01c-0.91-0.03-1.32,0.26-1.66,1.09
		C137.06,15.89,134.29,22.52,131.52,29.19z M222.96,60.75c0.16,9.37,7.45,16.43,16.8,16.27c8.95-0.16,16.3-7.69,16.15-16.54
		c-0.16-9.26-7.39-16.24-16.68-16.1C230.19,44.51,222.81,51.94,222.96,60.75z M119.65,60.72c0,4.6,0,9.19,0,13.79
		c0,2.03,0,2.06,2.08,2.03c4.15-0.06,8.33,0.34,12.44-0.5c12.21-2.47,15.34-13.43,11.73-22.24c-2.25-5.51-7-7.84-12.6-8.66
		c-4.17-0.61-8.38-0.15-12.57-0.31c-0.94-0.04-1.11,0.28-1.1,1.14C119.67,50.89,119.65,55.8,119.65,60.72z M278.56,64.17
		c0.24-0.12,0.41-0.22,0.59-0.3c5.25-2.41,7.42-8.1,5-13.33c-1.82-3.93-5.22-5.48-9.31-5.63c-4.15-0.15-8.32-0.02-12.47-0.09
		c-0.92-0.01-1.12,0.25-1.12,1.13c0.04,5.56,0.02,11.11,0.02,16.67c0,4.28,0.03,8.55-0.02,12.83c-0.01,0.93,0.27,1.15,1.14,1.1
		c1.52-0.07,3.04-0.06,4.56,0c0.73,0.02,0.96-0.18,0.95-0.93c-0.04-2.56-0.02-5.12-0.02-7.67c0-2.81,0-2.77,2.78-2.82
		c0.87-0.02,1.36,0.25,1.78,1.02c1.81,3.24,3.69,6.44,5.55,9.65c0.19,0.32,0.26,0.75,0.81,0.75c2.22-0.02,4.44-0.01,6.9-0.01
		C283.26,72.32,280.94,68.29,278.56,64.17z M115.92,76.54c-0.03-0.23-0.02-0.31-0.05-0.38c-3.91-10.21-7.82-20.41-11.71-30.63
		c-0.21-0.56-0.5-0.7-1.05-0.69c-2.04,0.03-4.08,0.06-6.11-0.01c-0.84-0.03-1.15,0.28-1.43,1.02c-3,7.95-6.05,15.88-9.08,23.81
		c-0.86,2.26-1.73,4.52-2.63,6.88c1.98,0,3.82-0.04,5.66,0.02c0.71,0.02,1.07-0.2,1.29-0.88c0.53-1.59,1.15-3.15,1.69-4.73
		c0.2-0.6,0.47-0.88,1.18-0.87c4.12,0.04,8.23,0.04,12.35,0c0.71-0.01,0.96,0.28,1.17,0.88c0.57,1.62,1.21,3.21,1.79,4.83
		c0.18,0.52,0.4,0.78,1.01,0.76C111.94,76.51,113.9,76.54,115.92,76.54z M96.34,40.35c3.51,0,6.11-0.58,8.47-2.11
		c4.63-3,5.69-11.18,0.01-14.59c-2.04-1.22-4.22-2.06-6.47-2.75c-1.45-0.44-2.92-0.78-4.25-1.57c-1.1-0.65-1.7-1.55-1.58-2.85
		c0.11-1.24,0.84-2.03,1.95-2.5c2.22-0.95,5.2-0.26,6.97,1.51c0.57,0.57,0.65,1.8,1.53,1.74c0.8-0.06,1.55-0.75,2.33-1.17
		c0.07-0.04,0.14-0.08,0.21-0.12c2.99-1.61,3.03-1.87,0.69-4.45c-4.3-4.75-12.77-5.12-17.46-0.75c-4.34,4.04-3.53,10.94,1.61,13.86
		c1.81,1.03,3.74,1.78,5.75,2.33c1.54,0.42,3.06,0.91,4.45,1.71c1.95,1.12,2.07,3.36,0.28,4.73c-0.48,0.37-1.02,0.62-1.6,0.78
		c-3.26,0.91-6.67-0.39-8.38-3.32c-0.44-0.75-0.75-0.79-1.44-0.38c-1.17,0.69-2.36,1.36-3.61,1.86c-1.14,0.46-1.04,0.99-0.52,1.87
		C87.94,38.65,92.1,40.25,96.34,40.35z M300.07,77.04c3.15-0.04,5.75-0.62,8.11-2.16c4.58-3.01,5.67-11.14-0.04-14.58
		c-2-1.21-4.15-2.03-6.36-2.71c-1.48-0.46-3-0.79-4.36-1.61c-1.04-0.63-1.67-1.49-1.59-2.74c0.08-1.29,0.82-2.11,1.99-2.6
		c2.23-0.94,5.19-0.26,6.96,1.5c0.57,0.57,0.67,1.8,1.53,1.74c0.8-0.05,1.55-0.75,2.32-1.17c0.07-0.04,0.14-0.08,0.21-0.12
		c2.98-1.6,3.02-1.87,0.71-4.45c-4.31-4.79-12.87-5.12-17.55-0.69c-4.27,4.04-3.45,10.86,1.65,13.77c1.81,1.03,3.73,1.8,5.74,2.35
		c1.5,0.41,2.98,0.9,4.36,1.64c2.13,1.14,2.26,3.55,0.26,4.92c-0.39,0.27-0.83,0.48-1.28,0.62c-3.23,1.01-6.81-0.29-8.52-3.22
		c-0.48-0.82-0.8-0.82-1.52-0.4c-1.17,0.69-2.36,1.36-3.61,1.86c-1.08,0.43-1,0.92-0.5,1.77C291.24,75.32,295.44,76.93,300.07,77.04
		z M207.66,77.05c3.23-0.04,5.98-0.64,8.42-2.41c4.19-3.04,5.27-10.89-0.35-14.32c-2.03-1.24-4.21-2.07-6.47-2.75
		c-1.45-0.44-2.93-0.78-4.25-1.57c-1.08-0.65-1.71-1.54-1.59-2.85c0.12-1.31,0.9-2.07,2.07-2.54c2.3-0.91,5.18-0.2,6.93,1.61
		c0.53,0.55,0.6,1.72,1.45,1.68c0.72-0.04,1.4-0.69,2.1-1.07c0.07-0.04,0.15-0.06,0.22-0.1c0.88-0.59,2.52-0.81,2.59-1.66
		c0.1-1.18-1.04-2.25-1.91-3.19c-4.29-4.58-12.88-4.74-17.39-0.32c-4.14,4.05-3.32,10.71,1.66,13.63c1.59,0.93,3.28,1.64,5.04,2.16
		c1.72,0.5,3.45,0.99,5.05,1.83c2.25,1.17,2.35,3.71,0.2,5.06c-0.4,0.25-0.86,0.43-1.31,0.56c-3.26,0.93-6.67-0.38-8.38-3.3
		c-0.43-0.73-0.72-0.81-1.43-0.39c-1.2,0.71-2.44,1.37-3.72,1.92c-0.97,0.41-0.99,0.85-0.5,1.69
		C198.75,75.27,202.93,76.91,207.66,77.05z M180.21,44.85c-2.09,0-4.01,0.05-5.92-0.02c-0.84-0.03-1.16,0.26-1.42,1.03
		c-2.44,7.23-4.93,14.45-7.42,21.67c-0.12,0.35-0.11,0.79-0.54,1.1c-0.15-0.4-0.28-0.76-0.4-1.12c-2.47-7.22-4.94-14.45-7.38-21.68
		c-0.24-0.71-0.52-1.02-1.32-0.99c-1.72,0.07-3.44,0.06-5.16,0c-0.87-0.03-0.89,0.24-0.63,0.96c3.63,9.99,7.25,19.99,10.85,30
		c0.21,0.59,0.49,0.79,1.12,0.77c1.92-0.04,3.84-0.06,5.76,0.01c0.79,0.03,1.09-0.26,1.35-0.97c2.17-6.06,4.37-12.11,6.57-18.16
		C177.13,53.31,178.63,49.18,180.21,44.85z M191.08,60.69c0-4.95-0.02-9.91,0.02-14.86c0-0.78-0.19-1.04-1-1
		c-1.6,0.07-3.2,0.05-4.8,0.01c-0.64-0.02-0.81,0.2-0.81,0.82c0.02,10.03,0.02,20.06,0,30.09c0,0.62,0.18,0.83,0.81,0.81
		c1.56-0.04,3.12-0.07,4.68,0.01c0.92,0.05,1.13-0.24,1.12-1.12C191.06,70.52,191.08,65.61,191.08,60.69z M272.87,92.85
		c0.31,0.1,0.28,0.27,0.28,0.42c0,2.08,0.07,4.16-0.03,6.23c-0.05,1.05,0.46,1.08,1.21,1.02c0.65-0.05,1.4,0.29,1.37-0.96
		c-0.09-3.51-0.06-7.03-0.01-10.55c0.01-0.85-0.23-1.15-1.06-1.03c-0.31,0.05-0.64,0.05-0.96,0c-1.06-0.16-1.61,0.21-2,1.29
		c-0.84,2.32-1.88,4.57-2.91,7.04c-0.95-2.22-1.81-4.23-2.67-6.25c-0.9-2.12-0.89-2.08-3.24-2.1c-0.8-0.01-1,0.23-0.99,1.01
		c0.04,3.48,0.08,6.95-0.02,10.43c-0.03,1.18,0.53,1.12,1.36,1.14c0.86,0.02,1.27-0.1,1.22-1.13c-0.1-2.19-0.03-4.4-0.03-6.59
		c1.17,2.19,2.13,4.42,3.05,6.65c0.25,0.61,0.42,1.09,1.29,1.1c0.87,0.01,1.07-0.46,1.32-1.06C271,97.28,271.94,95.06,272.87,92.85z
		 M64.79,44.25c3.52,0,7.04,0,10.55,0c0.72,0,1.45,0.04,2.15-0.08c0.98-0.17,1.55-0.84,1.58-1.84c0.03-0.97-0.54-1.57-1.48-1.76
		c-0.58-0.11-1.19-0.15-1.78-0.15c-6.76-0.01-13.51-0.01-20.27-0.01c-1.15,0-2.31-0.18-3.46,0.13c-0.89,0.24-1.34,0.81-1.36,1.72
		c-0.02,1.25,0.79,1.97,2.31,1.98C56.96,44.26,60.87,44.25,64.79,44.25z M45.17,63.62c0-3.59,0-7.18,0-10.78c0-0.6,0-1.2-0.24-1.77
		c-0.32-0.75-0.91-1.08-1.7-1.1c-0.79-0.03-1.4,0.27-1.77,0.99c-0.23,0.44-0.27,0.91-0.27,1.39c0.01,7.46,0.01,14.93,0.01,22.39
		c0,0.4,0.02,0.79,0.19,1.17c0.36,0.8,0.94,1.34,1.83,1.28c0.96-0.07,1.65-0.62,1.84-1.6c0.1-0.5,0.09-1.03,0.09-1.55
		C45.18,70.57,45.18,67.09,45.17,63.62z M19.1,16.62c-0.83,0-1.48,0.35-1.82,1.12c-0.41,0.92-0.1,1.7,0.59,2.38
		c5.6,5.57,11.2,11.16,16.81,16.73c1.07,1.06,2.24,1.15,3.06,0.31c0.89-0.91,0.8-2.01-0.32-3.14c-5.58-5.55-11.16-11.08-16.75-16.62
		C20.23,16.97,19.76,16.61,19.1,16.62z M69.26,18.52c0.01-1.46-1.53-2.39-2.79-1.64c-0.51,0.3-0.95,0.73-1.37,1.15
		c-2.44,2.42-4.86,4.86-7.3,7.28c-2.98,2.96-5.98,5.89-8.94,8.85c-1.19,1.19-1,2.77,0.36,3.37c1.05,0.46,1.85-0.03,2.57-0.76
		c5.59-5.59,11.19-11.19,16.78-16.78C68.98,19.58,69.28,19.12,69.26,18.52z M36.37,47.06c-0.22,0.08-0.57,0.17-0.88,0.34
		c-0.31,0.18-0.59,0.42-0.84,0.67C29.07,53.6,23.48,59.13,17.9,64.68c-0.98,0.97-1.04,2.14-0.24,2.96c0.78,0.79,1.99,0.71,2.99-0.2
		c0.18-0.16,0.34-0.34,0.51-0.51c4.67-4.64,9.35-9.28,14.01-13.93c0.93-0.93,1.86-1.87,2.74-2.84c0.53-0.59,0.56-1.29,0.21-2.01
		C37.8,47.47,37.22,47.18,36.37,47.06z M41.21,21.08c0,3.79-0.01,7.58,0,11.37c0,1.39,0.77,2.28,1.91,2.29
		c1.15,0.01,1.98-0.84,1.98-2.24c0.03-7.54,0.04-15.08,0.02-22.63c0-1.58-0.84-2.44-2.08-2.39c-1.18,0.05-1.84,0.92-1.84,2.46
		C41.2,13.65,41.21,17.37,41.21,21.08z M50.08,47.07c-1.21,0.04-1.95,0.86-1.97,1.96c-0.01,0.92,0.61,1.44,1.17,2
		c2.69,2.68,5.4,5.34,8.09,8.01c2.78,2.76,5.54,5.54,8.32,8.3c1.19,1.17,2.67,1.11,3.34-0.11c0.58-1.07,0.1-1.91-0.66-2.67
		c-3.8-3.77-7.59-7.55-11.38-11.33c-1.61-1.61-3.2-3.24-4.83-4.84C51.53,47.78,50.92,47.11,50.08,47.07z M21.2,44.23
		C21.2,44.23,21.2,44.23,21.2,44.23c3.75,0,7.51,0,11.26-0.01c0.52,0,1.05-0.02,1.54-0.14c0.93-0.23,1.41-0.9,1.39-1.85
		c-0.02-0.9-0.53-1.5-1.42-1.68c-0.58-0.12-1.18-0.2-1.78-0.2c-7.39-0.01-14.78-0.01-22.17-0.01c-0.53,0-1.04,0.04-1.53,0.23
		c-0.89,0.34-1.32,0.99-1.23,1.96c0.09,0.98,0.67,1.51,1.59,1.67c0.35,0.06,0.72,0.04,1.08,0.04C13.69,44.23,17.44,44.23,21.2,44.23
		z M205.77,92.42c0.09-0.04,0.18-0.07,0.27-0.11c1.52,2.28,3.11,4.52,4.54,6.86c0.64,1.06,1.36,1.45,2.58,1.39
		c0.88-0.04,1.03-0.32,1.02-1.11c-0.04-3.27,0-6.55-0.02-9.82c-0.01-1.83,0.41-1.57-1.64-1.65c-0.72-0.03-0.97,0.15-0.95,0.92
		c0.06,1.99,0.03,3.99,0.01,5.99c0,0.27,0.21,0.64-0.25,0.83c-1.35-2.03-2.83-3.99-4.01-6.1c-0.8-1.43-1.82-1.76-3.29-1.65
		c-0.7,0.05-0.85,0.26-0.84,0.91c0.03,3.55,0.06,7.11-0.02,10.66c-0.02,1.08,0.52,1.04,1.23,0.99c0.65-0.05,1.45,0.31,1.39-0.96
		C205.7,97.19,205.77,94.8,205.77,92.42z M115.56,95.68c-0.38-0.04-0.44-0.24-0.55-0.4c-1.44-2.16-2.88-4.31-4.32-6.47
		c-0.44-0.67-2.64-1.16-3.32-0.77c-0.23,0.13-0.2,0.32-0.2,0.51c0,3.79-0.06,7.59,0.03,11.38c0.03,1.22,1.12,0.39,1.7,0.57
		c0.64,0.2,0.91-0.12,0.88-0.82c-0.05-1.2-0.01-2.4-0.01-3.59c0-1.28,0-2.55,0-4.17c1.76,2.65,3.36,4.94,4.83,7.31
		c0.62,0.99,1.3,1.44,2.49,1.34c0.77-0.07,1.11-0.14,1.09-1.04c-0.05-3.51-0.08-7.03,0.01-10.54c0.03-1.24-0.69-0.95-1.36-0.98
		c-0.75-0.04-1.36-0.12-1.3,1.05C115.64,91.23,115.56,93.43,115.56,95.68z M161.3,95.67c-0.09,0.01-0.18,0.02-0.27,0.04
		c-1.37-2.05-2.84-4.05-4.08-6.17c-0.73-1.24-1.57-1.66-2.97-1.58c-0.92,0.05-1.11,0.29-1.09,1.15c0.05,3.24,0.02,6.47,0.02,9.71
		c0,1.81,0,1.77,1.79,1.73c0.67-0.01,0.78-0.27,0.78-0.85c-0.03-2.24-0.02-4.47,0-6.71c0-0.23-0.2-0.56,0.24-0.73
		c1.52,2.29,3.11,4.54,4.54,6.88c0.66,1.09,1.4,1.56,2.68,1.43c0.71-0.07,0.95-0.2,0.94-0.95c-0.04-3.56-0.07-7.11,0.01-10.67
		c0.03-1.27-0.76-0.9-1.39-0.95c-0.73-0.06-1.27-0.07-1.22,1C161.37,91.22,161.3,93.44,161.3,95.67z M25.28,87.81
		c-3.61-0.02-6.58,2.84-6.59,6.34c-0.01,3.67,2.84,6.57,6.47,6.57c3.57,0,6.54-2.91,6.54-6.41C31.69,90.67,28.89,87.83,25.28,87.81z
		 M297.63,95.63c-0.08,0.04-0.17,0.07-0.25,0.11c-1.37-2.05-2.83-4.05-4.08-6.16c-0.75-1.27-1.63-1.72-3.07-1.62
		c-0.87,0.06-1.02,0.33-1.02,1.11c0.04,3.43,0.06,6.87-0.01,10.3c-0.02,0.97,0.27,1.17,1.19,1.19c1.04,0.01,1.47-0.19,1.39-1.34
		c-0.12-1.55-0.03-3.11-0.03-4.67c0-0.77,0-1.53,0-2.3c1.79,2.28,3.39,4.56,4.85,6.93c0.64,1.04,1.35,1.47,2.57,1.38
		c0.77-0.06,1-0.22,0.99-1.01c-0.04-3.51-0.08-7.03,0.02-10.54c0.03-1.22-0.63-0.98-1.33-1.02c-0.81-0.05-1.32-0.01-1.27,1.09
		C297.71,91.26,297.63,93.44,297.63,95.63z M237.33,93.98c1.53-1.31,1.93-2.33,1.41-3.73c-0.6-1.6-1.91-2.17-3.49-2.22
		c-1.6-0.05-3.2-0.01-4.79-0.04c-0.5-0.01-0.71,0.13-0.71,0.67c0.02,3.71,0.01,7.43,0.01,11.14c0,0.37-0.03,0.74,0.52,0.72
		c2.15-0.09,4.32,0.24,6.45-0.24c2.01-0.45,3.03-2.04,2.68-4.01C239.2,95.08,238.33,94.48,237.33,93.98z M55.95,100.52
		c0.06-0.16,0.09-0.21,0.08-0.24c-0.74-1.32-1.48-2.64-2.23-3.95c-0.25-0.43-0.47-0.68,0.2-1.07c1.75-1.02,2.29-2.59,1.77-4.51
		c-0.43-1.58-1.79-2.62-3.69-2.71c-1.52-0.07-3.04,0.01-4.56-0.06c-0.81-0.04-0.99,0.24-0.98,1.01c0.04,3.4,0.06,6.79-0.01,10.19
		c-0.02,1.09,0.26,1.42,1.37,1.39c0.95-0.03,1.39-0.18,1.26-1.23c-0.09-0.75-0.05-1.52,0-2.27c0.02-0.37-0.29-0.97,0.42-1.04
		c0.58-0.06,1.15-0.14,1.51,0.6c0.54,1.11,1.21,2.15,1.84,3.22c0.19,0.33,0.32,0.73,0.85,0.7C54.51,100.5,55.26,100.52,55.95,100.52
		z M141.23,100.36c-0.78-1.36-1.54-2.71-2.33-4.04c-0.29-0.48-0.33-0.71,0.26-1.07c1.68-1.01,2.23-2.55,1.75-4.42
		c-0.41-1.62-1.74-2.68-3.63-2.78c-1.51-0.08-3.04,0-4.55-0.07c-0.83-0.04-1.08,0.2-1.07,1.05c0.05,3.36,0.07,6.71-0.01,10.07
		c-0.03,1.11,0.19,1.53,1.4,1.47c0.97-0.05,1.36-0.25,1.24-1.26c-0.08-0.71-0.06-1.44,0-2.15c0.04-0.4-0.36-1.05,0.43-1.15
		c0.59-0.07,1.18-0.12,1.49,0.63c0.26,0.62,0.75,1.15,0.98,1.78C137.91,100.26,139.15,101.01,141.23,100.36z M94.58,100.34
		c-0.76-1.32-1.49-2.63-2.26-3.92c-0.29-0.49-0.44-0.79,0.22-1.19c1.65-1.01,2.2-2.51,1.74-4.3c-0.44-1.72-1.74-2.79-3.66-2.89
		c-1.64-0.08-3.28-0.02-4.91-0.06c-0.54-0.01-0.67,0.18-0.66,0.69c0.02,3.72,0.02,7.43,0,11.15c0,0.62,0.24,0.75,0.77,0.71
		c0.36-0.03,0.72-0.04,1.08,0c0.66,0.08,0.82-0.22,0.79-0.83c-0.04-0.88-0.05-1.76,0.01-2.64c0.02-0.36-0.32-0.96,0.37-1.05
		c0.58-0.08,1.19-0.13,1.51,0.6c0.28,0.62,0.75,1.15,0.98,1.78C91.26,100.23,92.45,101.04,94.58,100.34z M181.65,100.52
		c-1.37-3.58-2.69-7.01-4-10.43c-0.88-2.3-1.02-2.38-3.43-2.11c-0.37,0.04-0.57,0.16-0.7,0.51c-1.44,3.81-2.9,7.62-4.35,11.43
		c-0.09,0.23-0.29,0.49,0.2,0.62c1.32,0.35,2.27-0.07,2.68-1.42c0.27-0.87,0.69-1.22,1.61-1.14c1.11,0.09,2.24,0.07,3.35,0
		c0.78-0.05,1.24,0.23,1.35,0.98c0.22,1.39,1.04,1.82,2.35,1.58C180.95,100.49,181.19,100.52,181.65,100.52z M228.1,100.49
		c0.02-0.12,0.07-0.21,0.04-0.27c-1.49-3.91-2.98-7.82-4.46-11.73c-0.13-0.36-0.32-0.51-0.7-0.49c-0.52,0.02-1.04,0.05-1.56-0.01
		c-0.79-0.1-1.18,0.17-1.47,0.97c-1.22,3.37-2.54,6.71-3.8,10.07c-0.17,0.46-0.51,0.9-0.43,1.44c2.28,0.2,2.3,0.2,3.11-1.77
		c0.22-0.52,0.5-0.73,1.06-0.71c1.24,0.04,2.48,0.07,3.71-0.01c0.84-0.05,1.29,0.25,1.42,1.05c0.22,1.32,1,1.76,2.26,1.51
		C227.55,100.48,227.83,100.5,228.1,100.49z M70.88,100.52c0.76,0,1.4-0.03,2.03,0.01c0.43,0.02,0.72-0.12,0.77-0.54
		c0.24-1.95,1.5-2.23,3.14-2.02c0.71,0.09,1.44,0.07,2.15,0c0.79-0.08,1.23,0.23,1.34,0.99c0.21,1.52,1.19,1.71,2.48,1.59
		c0.6-0.06,0.78-0.15,0.54-0.76c-1.44-3.71-2.86-7.44-4.27-11.16c-0.18-0.49-0.46-0.63-0.98-0.65c-2.39-0.07-2.4-0.09-3.26,2.18
		C73.51,93.57,72.22,96.99,70.88,100.52z M278.59,94.22c0,1.8,0.02,3.6-0.01,5.39c-0.01,0.62,0.08,0.94,0.83,0.93
		c2.24-0.05,4.48-0.05,6.71,0c1.08,0.02,0.73-0.72,0.73-1.23c0-0.51,0.34-1.26-0.74-1.21c-1.4,0.06-2.8-0.01-4.2,0.03
		c-0.56,0.01-0.83-0.13-0.75-0.73c0.03-0.28,0.04-0.56,0-0.84c-0.13-0.85,0.13-1.23,1.08-1.14c0.99,0.09,2.01-0.06,2.99,0.04
		c1.24,0.13,0.93-0.69,0.99-1.36c0.07-0.79-0.03-1.28-1.04-1.19c-1.07,0.1-2.16-0.02-3.24,0.03c-1.18,0.06-0.73-0.79-0.76-1.31
		c-0.02-0.5-0.35-1.26,0.74-1.2c1.32,0.07,2.64-0.05,3.95,0.04c0.99,0.07,1.03-0.45,0.95-1.16c-0.06-0.59,0.34-1.39-0.88-1.34
		c-2.16,0.08-4.32,0.06-6.47,0c-0.78-0.02-0.93,0.26-0.91,0.97C278.62,90.7,278.59,92.46,278.59,94.22z M251.25,94.3
		c0,1.8,0.02,3.6-0.01,5.39c-0.01,0.6,0.12,0.85,0.79,0.84c2.24-0.04,4.48-0.05,6.71,0c1.17,0.03,0.73-0.78,0.78-1.31
		c0.05-0.57,0.2-1.21-0.82-1.14c-1.35,0.09-2.72-0.01-4.07,0.04c-0.64,0.02-0.87-0.18-0.8-0.81c0.04-0.32,0.04-0.64,0-0.96
		c-0.1-0.74,0.18-0.98,0.92-0.94c1.12,0.06,2.24-0.04,3.35,0.03c1.07,0.06,0.79-0.68,0.75-1.2c-0.04-0.51,0.45-1.38-0.74-1.33
		c-1.16,0.05-2.32-0.03-3.48,0.02c-1.26,0.06-0.73-0.86-0.8-1.41c-0.08-0.6-0.15-1.18,0.84-1.11c1.35,0.09,2.72-0.02,4.07,0.03
		c1.09,0.04,0.72-0.74,0.72-1.24c-0.01-0.49,0.39-1.26-0.7-1.24c-2.24,0.04-4.48,0.04-6.71-0.01c-0.76-0.02-0.83,0.32-0.82,0.93
		C251.27,90.71,251.25,92.5,251.25,94.3z M192.59,94.25c0,1.8,0.03,3.6-0.01,5.39c-0.01,0.66,0.15,0.91,0.86,0.89
		c2.2-0.04,4.4-0.06,6.6,0c1.18,0.04,0.74-0.77,0.77-1.29c0.04-0.53,0.27-1.22-0.78-1.16c-1.35,0.08-2.72-0.01-4.08,0.03
		c-0.63,0.02-0.88-0.18-0.81-0.81c0.04-0.32,0.04-0.64,0-0.96c-0.1-0.73,0.17-0.98,0.92-0.94c1.12,0.06,2.24-0.03,3.36,0.03
		c1.06,0.06,0.8-0.67,0.77-1.2c-0.03-0.54,0.39-1.38-0.77-1.32c-1.16,0.05-2.32-0.03-3.48,0.02c-1.16,0.06-0.76-0.78-0.77-1.31
		c-0.01-0.5-0.35-1.25,0.74-1.2c1.32,0.07,2.64-0.06,3.96,0.04c1.01,0.07,1.01-0.47,0.94-1.16c-0.06-0.59,0.36-1.39-0.87-1.34
		c-2.16,0.08-4.32,0.05-6.48,0.01c-0.68-0.01-0.89,0.2-0.87,0.88C192.62,90.65,192.59,92.45,192.59,94.25z M121.07,94.26
		c0,1.8,0.03,3.6-0.01,5.39c-0.02,0.66,0.16,0.9,0.86,0.89c2.2-0.04,4.4-0.06,6.59,0.01c1.03,0.03,0.84-0.61,0.8-1.16
		c-0.04-0.53,0.39-1.35-0.79-1.28c-1.35,0.08-2.72-0.02-4.07,0.03c-0.64,0.02-0.86-0.19-0.79-0.81c0.04-0.32,0.04-0.64,0-0.96
		c-0.09-0.72,0.14-0.99,0.91-0.94c1.11,0.07,2.24,0.02,3.36,0.01c0.26,0,0.68,0.11,0.72-0.23c0.08-0.67,0.15-1.38-0.01-2.01
		c-0.13-0.51-0.77-0.22-1.17-0.24c-0.72-0.04-1.44-0.01-2.16-0.01c-1.73,0-1.7,0-1.65-1.75c0.02-0.57,0.18-0.76,0.75-0.74
		c1.36,0.04,2.72-0.05,4.07,0.03c1.04,0.06,0.84-0.62,0.8-1.17c-0.04-0.53,0.42-1.35-0.76-1.32c-2.2,0.05-4.4,0.04-6.59,0
		c-0.7-0.01-0.87,0.22-0.86,0.89C121.1,90.66,121.07,92.46,121.07,94.26z M43.81,92.64c0-1.32-0.09-2.41,0.02-3.48
		c0.11-1.09-0.37-1.21-1.29-1.2c-0.94,0.01-1.44,0.07-1.37,1.26c0.12,2.15,0.06,4.31,0.01,6.46c-0.03,1.55-0.92,2.42-2.35,2.45
		c-1.52,0.03-2.44-0.84-2.47-2.44c-0.04-2.27-0.03-4.55,0-6.83c0.01-0.66-0.15-0.97-0.85-0.88c-0.39,0.05-0.8,0.03-1.2,0
		c-0.48-0.04-0.6,0.18-0.6,0.63c0.03,2.59-0.08,5.19,0.07,7.78c0.15,2.69,1.85,4.11,4.81,4.3c2.64,0.17,4.48-1.22,5.03-3.77
		C43.96,95.43,43.72,93.91,43.81,92.64z M62.27,94.24c0,1.84-0.01,3.67,0.01,5.51c0,0.32-0.15,0.68,0.44,0.79
		c1.8,0.31,2.17,0.04,2.17-1.72c0-0.4,0.05-0.81-0.01-1.2c-0.17-1.18,0.17-1.8,1.49-1.57c0.42,0.07,0.88-0.01,1.31-0.06
		c2.3-0.22,3.74-1.79,3.71-4.04c-0.03-2.21-1.55-3.79-3.85-3.91c-1.47-0.08-2.96,0-4.43-0.06c-0.69-0.03-0.87,0.21-0.85,0.87
		C62.3,90.65,62.27,92.45,62.27,94.24z M100.45,87.99c-1.28,0-2.56,0.07-3.83-0.02c-1.02-0.08-1.37,0.18-1.32,1.27
		c0.04,0.94,0.17,1.42,1.23,1.25c0.51-0.08,1.04,0.03,1.56-0.02c0.78-0.08,1.03,0.2,1.01,0.99c-0.05,2.72,0.04,5.43-0.04,8.15
		c-0.04,1.32,0.84,0.83,1.44,0.9c0.66,0.07,1.23,0.13,1.19-0.91c-0.09-2.07-0.03-4.15-0.03-6.23c0-2.85,0-2.85,2.79-2.89
		c0.08,0,0.16-0.01,0.24,0c1.19,0.09,0.69-0.82,0.73-1.33c0.05-0.53,0.29-1.23-0.77-1.18C103.25,88.05,101.85,88,100.45,87.99z
		 M7.05,88.09c0.65,1.09,1.2,2.1,1.85,3.04c1.79,2.6,3.3,5.27,2.68,8.61c-0.04,0.24-0.13,0.68,0.21,0.71
		c0.71,0.08,1.46,0.15,2.13-0.02c0.45-0.12,0.25-0.8,0.19-1.19c-0.36-2.68,0.41-4.98,2.03-7.12c0.94-1.25,1.67-2.66,2.57-4.13
		c-0.53,0-0.86,0.04-1.16-0.01c-1.31-0.22-2.13,0.26-2.69,1.51c-0.53,1.17-1.28,2.24-2.01,3.48c-0.63-1.09-1.28-1.93-1.63-2.88
		C10.48,88.12,9.11,87.63,7.05,88.09z M308.28,95.53c0-0.72-0.01-1.44,0-2.16c0.02-0.91-0.29-2.08,0.16-2.67
		c0.49-0.64,1.71-0.14,2.61-0.22c0.04,0,0.08-0.01,0.12,0c1.21,0.17,0.84-0.72,0.88-1.32c0.05-0.66,0.12-1.22-0.91-1.19
		c-2.63,0.07-5.27,0.08-7.91,0c-1.06-0.03-1.33,0.25-1.32,1.3c0.01,1,0.27,1.37,1.27,1.22c0.47-0.07,0.96,0.03,1.44-0.02
		c0.82-0.1,1.1,0.17,1.08,1.04c-0.06,2.43-0.02,4.87-0.02,7.31c0,1.78,0,1.75,1.81,1.73c0.65-0.01,0.81-0.21,0.79-0.82
		C308.25,98.33,308.28,96.93,308.28,95.53z M241.6,94.3c0,1.68,0.07,3.36-0.03,5.03c-0.06,1.04,0.31,1.26,1.27,1.21
		c1.67-0.08,3.35-0.02,5.03-0.02c1.75,0,1.71,0,1.68-1.71c-0.01-0.69-0.29-0.77-0.86-0.75c-1.12,0.03-2.24-0.07-3.35,0.03
		c-1.01,0.09-1.18-0.32-1.16-1.21c0.06-2.39,0.02-4.79,0.02-7.19c0-1.74,0-1.7-1.69-1.71c-0.73-0.01-0.97,0.19-0.94,0.93
		C241.63,90.71,241.6,92.51,241.6,94.3z M185.66,94.32c0-1.72-0.08-3.44,0.03-5.15c0.07-1.12-0.41-1.21-1.31-1.18
		c-0.81,0.03-1.39-0.06-1.36,1.13c0.1,3.23,0.01,6.47,0.04,9.71c0.02,1.94-0.42,1.64,1.68,1.72c0.76,0.03,0.95-0.22,0.93-0.95
		C185.62,97.84,185.66,96.08,185.66,94.32z M147.4,94.31c0,1.75,0.08,3.51-0.03,5.26c-0.07,1.12,0.57,1,1.25,0.96
		c0.63-0.04,1.43,0.35,1.4-0.93c-0.08-3.3-0.03-6.61-0.03-9.92c0-1.71,0-1.66-1.71-1.69c-0.77-0.01-0.92,0.24-0.9,0.95
		C147.43,90.72,147.4,92.51,147.4,94.31z"/>
	<path class="st1" d="M131.52,29.19c2.77-6.67,5.54-13.3,8.26-19.96c0.34-0.83,0.75-1.13,1.66-1.09c2.2,0.08,4.4,0.05,6.59,0.01
		c0.72-0.01,0.95,0.17,0.95,0.93c-0.03,9.95-0.02,19.9,0,29.85c0,0.72-0.17,0.97-0.92,0.94c-1.52-0.06-3.04-0.07-4.56,0
		c-0.86,0.04-1.05-0.24-1.05-1.07c0.03-6.07,0.02-12.15,0.02-18.22c0-0.34,0-0.68,0-1.01c-0.08-0.02-0.16-0.03-0.24-0.05
		c-0.2,0.45-0.41,0.9-0.6,1.35c-2.53,6-5.08,11.99-7.58,18c-0.3,0.73-0.63,1.08-1.47,1c-1.1-0.11-2.45,0.29-3.26-0.22
		c-0.76-0.48-0.96-1.85-1.38-2.84c-2.43-5.73-4.85-11.46-7.28-17.2c-0.48,0.13-0.27,0.47-0.27,0.69
		c-0.01,6.15-0.03,12.31,0.02,18.46c0.01,0.91-0.24,1.16-1.13,1.11c-1.48-0.08-2.96-0.07-4.44,0c-0.77,0.03-0.92-0.24-0.92-0.95
		c0.02-9.91,0.03-19.82,0-29.73c0-0.87,0.28-1.06,1.09-1.04c2.12,0.05,4.24,0.06,6.35-0.01c0.82-0.03,1.18,0.25,1.49,0.99
		c2.69,6.45,5.42,12.88,8.15,19.31C131.12,28.68,131.12,29,131.52,29.19z"/>
	<path class="st1" d="M222.96,60.75c-0.15-8.81,7.23-16.24,16.27-16.37c9.29-0.14,16.52,6.84,16.68,16.1
		c0.15,8.85-7.2,16.38-16.15,16.54C230.42,77.18,223.12,70.12,222.96,60.75z M239.27,70.63c5.34,0.13,9.82-4.25,9.95-9.72
		c0.12-5.5-4.18-10.08-9.6-10.22c-5.22-0.13-9.79,4.24-9.92,9.5C229.56,65.98,233.7,70.49,239.27,70.63z"/>
	<path class="st1" d="M119.65,60.72c0-4.92,0.02-9.83-0.02-14.75c-0.01-0.86,0.16-1.18,1.1-1.14c4.19,0.16,8.4-0.3,12.57,0.31
		c5.6,0.82,10.35,3.14,12.6,8.66c3.6,8.81,0.48,19.77-11.73,22.24c-4.11,0.83-8.29,0.44-12.44,0.5c-2.08,0.03-2.08,0-2.08-2.03
		C119.65,69.91,119.65,65.31,119.65,60.72z M126.22,60.62c0,2.88,0.04,5.76-0.02,8.63c-0.02,0.93,0.27,1.15,1.15,1.11
		c1.64-0.07,3.27-0.04,4.9-0.29c4.92-0.78,8.09-4.16,8.28-8.93c0.2-4.83-2.58-8.56-7.23-9.68c-2-0.48-4.04-0.44-6.08-0.48
		c-0.8-0.02-1.02,0.21-1.01,1.01C126.25,54.86,126.22,57.74,126.22,60.62z"/>
	<path class="st1" d="M278.56,64.17c2.38,4.12,4.71,8.15,7.14,12.37c-2.46,0-4.68-0.01-6.9,0.01c-0.54,0-0.62-0.42-0.81-0.75
		c-1.86-3.21-3.74-6.41-5.55-9.65c-0.43-0.77-0.91-1.03-1.78-1.02c-2.78,0.05-2.78,0.01-2.78,2.82c0,2.56-0.03,5.12,0.02,7.67
		c0.01,0.75-0.22,0.95-0.95,0.93c-1.52-0.05-3.04-0.07-4.56,0c-0.88,0.04-1.16-0.17-1.14-1.1c0.05-4.28,0.02-8.55,0.02-12.83
		c0-5.56,0.02-11.11-0.02-16.67c-0.01-0.89,0.2-1.15,1.12-1.13c4.16,0.06,8.32-0.06,12.47,0.09c4.09,0.14,7.49,1.7,9.31,5.63
		c2.42,5.24,0.25,10.93-5,13.33C278.97,63.96,278.8,64.05,278.56,64.17z M267.88,55.08c0,1.08,0,2.16,0,3.24
		c0,0.34-0.09,0.77,0.48,0.75c2.27-0.08,4.56,0.26,6.81-0.27c2.16-0.51,3.31-2,3.18-4.01c-0.13-2.1-1.44-3.39-3.72-3.67
		c-1.99-0.24-3.99-0.05-5.99-0.13c-0.67-0.03-0.81,0.27-0.79,0.86C267.91,52.92,267.88,54,267.88,55.08z"/>
	<path class="st1" d="M115.92,76.54c-2.02,0-3.98-0.03-5.93,0.02c-0.61,0.01-0.82-0.25-1.01-0.76c-0.57-1.62-1.22-3.21-1.79-4.83
		c-0.21-0.6-0.46-0.89-1.17-0.88c-4.12,0.04-8.23,0.04-12.35,0c-0.71-0.01-0.97,0.27-1.18,0.87c-0.54,1.58-1.16,3.14-1.69,4.73
		c-0.23,0.68-0.58,0.9-1.29,0.88c-1.83-0.05-3.67-0.02-5.66-0.02c0.9-2.36,1.76-4.62,2.63-6.88c3.03-7.94,6.08-15.87,9.08-23.81
		c0.28-0.74,0.6-1.05,1.43-1.02c2.04,0.07,4.08,0.04,6.11,0.01c0.55-0.01,0.84,0.14,1.05,0.69c3.89,10.21,7.8,20.42,11.71,30.63
		C115.9,76.23,115.9,76.31,115.92,76.54z M99.86,51.19c-1.65,4.46-3.2,8.63-4.74,12.8c3.21,0,6.29,0,9.5,0
		C103.04,59.75,101.51,55.62,99.86,51.19z"/>
	<path class="st1" d="M96.34,40.35c-4.24-0.1-8.4-1.7-11.08-6.19c-0.52-0.88-0.62-1.41,0.52-1.87c1.25-0.5,2.45-1.17,3.61-1.86
		c0.7-0.41,1.01-0.36,1.44,0.38c1.71,2.93,5.12,4.23,8.38,3.32c0.59-0.16,1.12-0.41,1.6-0.78c1.79-1.37,1.68-3.61-0.28-4.73
		c-1.39-0.8-2.91-1.29-4.45-1.71c-2.01-0.55-3.93-1.3-5.75-2.33c-5.14-2.92-5.95-9.82-1.61-13.86c4.69-4.37,13.16-4.01,17.46,0.75
		c2.34,2.58,2.3,2.84-0.69,4.45c-0.07,0.04-0.14,0.08-0.21,0.12c-0.77,0.42-1.53,1.11-2.33,1.17c-0.88,0.07-0.96-1.17-1.53-1.74
		c-1.77-1.76-4.74-2.45-6.97-1.51c-1.11,0.47-1.84,1.26-1.95,2.5c-0.12,1.3,0.49,2.2,1.58,2.85c1.32,0.79,2.8,1.13,4.25,1.57
		c2.25,0.69,4.43,1.53,6.47,2.75c5.68,3.41,4.62,11.59-0.01,14.59C102.45,39.76,99.85,40.34,96.34,40.35z"/>
	<path class="st1" d="M300.07,77.04c-4.63-0.12-8.83-1.73-11.51-6.27c-0.5-0.85-0.58-1.34,0.5-1.77c1.25-0.5,2.45-1.17,3.61-1.86
		c0.72-0.42,1.05-0.42,1.52,0.4c1.7,2.93,5.29,4.24,8.52,3.22c0.45-0.14,0.89-0.36,1.28-0.62c2-1.37,1.87-3.78-0.26-4.92
		c-1.38-0.74-2.85-1.22-4.36-1.64c-2.01-0.55-3.93-1.31-5.74-2.35c-5.1-2.91-5.92-9.73-1.65-13.77c4.68-4.43,13.24-4.1,17.55,0.69
		c2.32,2.57,2.27,2.85-0.71,4.45c-0.07,0.04-0.14,0.08-0.21,0.12c-0.77,0.42-1.53,1.12-2.32,1.17c-0.86,0.06-0.96-1.17-1.53-1.74
		c-1.77-1.76-4.73-2.45-6.96-1.5c-1.16,0.49-1.9,1.31-1.99,2.6c-0.08,1.25,0.54,2.11,1.59,2.74c1.35,0.82,2.88,1.15,4.36,1.61
		c2.21,0.68,4.36,1.5,6.36,2.71c5.71,3.44,4.62,11.57,0.04,14.58C305.82,76.43,303.22,77.01,300.07,77.04z"/>
	<path class="st1" d="M207.66,77.05c-4.73-0.14-8.91-1.78-11.58-6.33c-0.49-0.84-0.46-1.27,0.5-1.69c1.28-0.55,2.52-1.21,3.72-1.92
		c0.71-0.42,1-0.35,1.43,0.39c1.71,2.92,5.12,4.23,8.38,3.3c0.45-0.13,0.91-0.31,1.31-0.56c2.15-1.34,2.04-3.89-0.2-5.06
		c-1.6-0.83-3.33-1.33-5.05-1.83c-1.77-0.51-3.46-1.23-5.04-2.16c-4.99-2.92-5.8-9.58-1.66-13.63c4.51-4.42,13.1-4.26,17.39,0.32
		c0.88,0.94,2.01,2.01,1.91,3.19c-0.07,0.85-1.71,1.07-2.59,1.66c-0.07,0.04-0.15,0.06-0.22,0.1c-0.7,0.38-1.39,1.04-2.1,1.07
		c-0.85,0.04-0.92-1.13-1.45-1.68c-1.75-1.81-4.64-2.53-6.93-1.61c-1.17,0.46-1.95,1.23-2.07,2.54c-0.12,1.31,0.51,2.2,1.59,2.85
		c1.32,0.79,2.8,1.13,4.25,1.57c2.26,0.68,4.44,1.51,6.47,2.75c5.62,3.43,4.54,11.28,0.35,14.32C213.64,76.4,210.88,77,207.66,77.05
		z"/>
	<path class="st1" d="M180.21,44.85c-1.57,4.33-3.07,8.46-4.57,12.59c-2.2,6.05-4.4,12.1-6.57,18.16c-0.25,0.71-0.56,1-1.35,0.97
		c-1.92-0.06-3.84-0.05-5.76-0.01c-0.62,0.01-0.91-0.19-1.12-0.77c-3.6-10.01-7.21-20-10.85-30c-0.26-0.72-0.23-0.98,0.63-0.96
		c1.72,0.06,3.44,0.06,5.16,0c0.8-0.03,1.08,0.28,1.32,0.99c2.44,7.23,4.92,14.46,7.38,21.68c0.12,0.36,0.26,0.72,0.4,1.12
		c0.43-0.3,0.42-0.74,0.54-1.1c2.49-7.22,4.97-14.44,7.42-21.67c0.26-0.77,0.58-1.06,1.42-1.03
		C176.2,44.9,178.12,44.85,180.21,44.85z"/>
	<path class="st1" d="M191.08,60.69c0,4.91-0.02,9.83,0.02,14.74c0.01,0.89-0.2,1.17-1.12,1.12c-1.55-0.08-3.12-0.05-4.68-0.01
		c-0.64,0.02-0.81-0.19-0.81-0.81c0.02-10.03,0.02-20.06,0-30.09c0-0.62,0.17-0.84,0.81-0.82c1.6,0.04,3.2,0.06,4.8-0.01
		c0.81-0.03,1,0.23,1,1C191.06,50.78,191.08,55.74,191.08,60.69z"/>
	<path class="st1" d="M272.87,92.85c-0.93,2.21-1.87,4.43-2.79,6.65c-0.25,0.6-0.45,1.07-1.32,1.06c-0.87-0.01-1.04-0.49-1.29-1.1
		c-0.93-2.23-1.88-4.46-3.05-6.65c0,2.2-0.07,4.4,0.03,6.59c0.05,1.04-0.37,1.15-1.22,1.13c-0.83-0.02-1.39,0.05-1.36-1.14
		c0.09-3.47,0.06-6.95,0.02-10.43c-0.01-0.77,0.19-1.01,0.99-1.01c2.34,0.02,2.34-0.02,3.24,2.1c0.86,2.01,1.72,4.03,2.67,6.25
		c1.03-2.46,2.07-4.71,2.91-7.04c0.39-1.08,0.94-1.45,2-1.29c0.31,0.05,0.64,0.05,0.96,0c0.83-0.13,1.07,0.17,1.06,1.03
		c-0.05,3.51-0.08,7.03,0.01,10.55c0.03,1.26-0.72,0.91-1.37,0.96c-0.75,0.06-1.26,0.03-1.21-1.02c0.1-2.07,0.03-4.15,0.03-6.23
		C273.16,93.13,273.19,92.95,272.87,92.85z"/>
	<path class="st2" d="M64.79,44.25c-3.92,0-7.83,0.01-11.75-0.01c-1.52-0.01-2.34-0.73-2.31-1.98c0.02-0.92,0.47-1.48,1.36-1.72
		c1.14-0.31,2.3-0.13,3.46-0.13c6.76,0,13.51,0,20.27,0.01c0.6,0,1.2,0.04,1.78,0.15c0.94,0.18,1.5,0.78,1.48,1.76
		c-0.03,0.99-0.6,1.67-1.58,1.84c-0.7,0.12-1.43,0.08-2.15,0.08C71.83,44.25,68.31,44.25,64.79,44.25z"/>
	<path class="st2" d="M45.17,63.62c0,3.47,0,6.94,0,10.42c0,0.52,0.01,1.05-0.09,1.55c-0.2,0.98-0.88,1.53-1.84,1.6
		c-0.9,0.07-1.47-0.48-1.83-1.28c-0.17-0.38-0.19-0.77-0.19-1.17c0-7.46,0-14.93-0.01-22.39c0-0.49,0.04-0.95,0.27-1.39
		c0.37-0.72,0.98-1.01,1.77-0.99c0.78,0.03,1.38,0.36,1.7,1.1c0.24,0.57,0.24,1.17,0.24,1.77C45.17,56.44,45.17,60.03,45.17,63.62z"
		/>
	<path class="st2" d="M19.1,16.62c0.66-0.01,1.13,0.35,1.56,0.78c5.58,5.54,11.17,11.07,16.75,16.62c1.13,1.12,1.21,2.23,0.32,3.14
		c-0.82,0.84-1.99,0.75-3.06-0.31c-5.61-5.57-11.2-11.15-16.81-16.73c-0.69-0.68-0.99-1.46-0.59-2.38
		C17.62,16.97,18.27,16.62,19.1,16.62z"/>
	<path class="st2" d="M69.26,18.52c0.02,0.61-0.28,1.07-0.69,1.47c-5.59,5.59-11.19,11.18-16.78,16.78
		c-0.72,0.72-1.52,1.21-2.57,0.76c-1.37-0.59-1.55-2.18-0.36-3.37c2.97-2.97,5.97-5.9,8.94-8.85c2.44-2.42,4.86-4.86,7.3-7.28
		c0.42-0.42,0.86-0.85,1.37-1.15C67.73,16.12,69.27,17.05,69.26,18.52z"/>
	<path class="st2" d="M36.37,47.06c0.85,0.12,1.43,0.41,1.76,1.09c0.35,0.72,0.32,1.42-0.21,2.01c-0.88,0.98-1.81,1.91-2.74,2.84
		c-4.67,4.65-9.34,9.29-14.01,13.93c-0.17,0.17-0.33,0.34-0.51,0.51c-1,0.91-2.21,0.99-2.99,0.2c-0.8-0.81-0.73-1.99,0.24-2.96
		c5.57-5.55,11.16-11.08,16.75-16.61c0.25-0.25,0.53-0.49,0.84-0.67C35.8,47.23,36.15,47.14,36.37,47.06z"/>
	<path class="st2" d="M41.21,21.08c0-3.71,0-7.42,0-11.13c0-1.54,0.66-2.41,1.84-2.46c1.24-0.05,2.07,0.81,2.08,2.39
		c0.02,7.54,0.01,15.08-0.02,22.63c-0.01,1.4-0.83,2.25-1.98,2.24c-1.14-0.01-1.9-0.9-1.91-2.29C41.2,28.66,41.21,24.87,41.21,21.08
		z"/>
	<path class="st2" d="M50.08,47.07c0.84,0.04,1.45,0.71,2.07,1.32c1.62,1.6,3.21,3.23,4.83,4.84c3.79,3.78,7.59,7.56,11.38,11.33
		c0.76,0.76,1.25,1.6,0.66,2.67c-0.67,1.23-2.15,1.29-3.34,0.11c-2.78-2.75-5.54-5.53-8.32-8.3c-2.69-2.68-5.4-5.33-8.09-8.01
		c-0.56-0.56-1.18-1.08-1.17-2C48.12,47.93,48.86,47.11,50.08,47.07z"/>
	<path class="st2" d="M21.2,44.23c-3.75,0-7.51,0-11.26,0c-0.36,0-0.72,0.02-1.08-0.04c-0.93-0.16-1.51-0.68-1.59-1.67
		c-0.09-0.97,0.34-1.61,1.23-1.96c0.49-0.19,1-0.23,1.53-0.23c7.39,0.01,14.78,0,22.17,0.01c0.59,0,1.2,0.08,1.78,0.2
		c0.89,0.18,1.4,0.78,1.42,1.68c0.02,0.94-0.45,1.62-1.39,1.85c-0.5,0.12-1.03,0.14-1.54,0.14C28.7,44.23,24.95,44.23,21.2,44.23
		C21.2,44.23,21.2,44.23,21.2,44.23z"/>
	<path class="st1" d="M205.77,92.42c0,2.38-0.07,4.77,0.03,7.15c0.05,1.27-0.75,0.91-1.39,0.96c-0.72,0.05-1.26,0.09-1.23-0.99
		c0.08-3.55,0.04-7.11,0.02-10.66c-0.01-0.65,0.14-0.85,0.84-0.91c1.47-0.11,2.49,0.22,3.29,1.65c1.18,2.12,2.66,4.07,4.01,6.1
		c0.46-0.2,0.25-0.57,0.25-0.83c0.02-2,0.05-3.99-0.01-5.99c-0.02-0.77,0.23-0.94,0.95-0.92c2.04,0.07,1.62-0.18,1.64,1.65
		c0.03,3.27-0.02,6.55,0.02,9.82c0.01,0.79-0.14,1.07-1.02,1.11c-1.22,0.06-1.93-0.33-2.58-1.39c-1.43-2.34-3.01-4.58-4.54-6.86
		C205.95,92.35,205.86,92.38,205.77,92.42z"/>
	<path class="st1" d="M115.56,95.68c0-2.25,0.08-4.45-0.03-6.64c-0.06-1.17,0.54-1.09,1.3-1.05c0.67,0.03,1.39-0.26,1.36,0.98
		c-0.09,3.51-0.06,7.03-0.01,10.54c0.01,0.89-0.32,0.97-1.09,1.04c-1.19,0.1-1.87-0.34-2.49-1.34c-1.47-2.37-3.07-4.66-4.83-7.31
		c0,1.61,0,2.89,0,4.17c0,1.2-0.04,2.4,0.01,3.59c0.03,0.7-0.24,1.02-0.88,0.82c-0.58-0.18-1.67,0.65-1.7-0.57
		c-0.09-3.79-0.03-7.59-0.03-11.38c0-0.19-0.02-0.38,0.2-0.51c0.68-0.39,2.88,0.1,3.32,0.77c1.44,2.16,2.88,4.31,4.32,6.47
		C115.12,95.44,115.18,95.64,115.56,95.68z"/>
	<path class="st1" d="M161.3,95.67c0-2.22,0.07-4.45-0.03-6.67c-0.05-1.07,0.49-1.06,1.22-1c0.64,0.05,1.42-0.33,1.39,0.95
		c-0.08,3.55-0.05,7.11-0.01,10.67c0.01,0.75-0.23,0.88-0.94,0.95c-1.28,0.13-2.02-0.34-2.68-1.43c-1.43-2.34-3.02-4.59-4.54-6.88
		c-0.44,0.17-0.24,0.5-0.24,0.73c-0.02,2.24-0.03,4.47,0,6.71c0.01,0.58-0.11,0.84-0.78,0.85c-1.8,0.04-1.79,0.08-1.79-1.73
		c0-3.24,0.03-6.47-0.02-9.71c-0.01-0.86,0.18-1.1,1.09-1.15c1.4-0.08,2.24,0.33,2.97,1.58c1.24,2.13,2.71,4.12,4.08,6.17
		C161.12,95.69,161.21,95.68,161.3,95.67z"/>
	<path class="st1" d="M25.28,87.81c3.61,0.02,6.41,2.86,6.41,6.5c0,3.5-2.96,6.41-6.54,6.41c-3.63,0-6.48-2.89-6.47-6.57
		C18.7,90.64,21.67,87.79,25.28,87.81z M25.15,98.14c2.12,0.02,3.84-1.69,3.89-3.85c0.04-2.16-1.64-3.93-3.78-3.96
		c-2.14-0.03-3.89,1.71-3.89,3.85C21.36,96.36,23.05,98.13,25.15,98.14z"/>
	<path class="st1" d="M297.63,95.63c0-2.19,0.07-4.37-0.03-6.55c-0.05-1.1,0.46-1.13,1.27-1.09c0.7,0.04,1.36-0.2,1.33,1.02
		c-0.1,3.51-0.06,7.03-0.02,10.54c0.01,0.79-0.22,0.95-0.99,1.01c-1.22,0.1-1.93-0.34-2.57-1.38c-1.46-2.37-3.06-4.65-4.85-6.93
		c0,0.77,0,1.53,0,2.3c0,1.56-0.09,3.12,0.03,4.67c0.09,1.16-0.35,1.36-1.39,1.34c-0.92-0.01-1.21-0.22-1.19-1.19
		c0.06-3.43,0.05-6.87,0.01-10.3c-0.01-0.79,0.14-1.05,1.02-1.11c1.44-0.1,2.32,0.35,3.07,1.62c1.25,2.12,2.71,4.12,4.08,6.16
		C297.46,95.7,297.55,95.67,297.63,95.63z"/>
	<path class="st1" d="M237.33,93.98c1,0.5,1.87,1.1,2.08,2.3c0.35,1.97-0.67,3.56-2.68,4.01c-2.13,0.47-4.3,0.15-6.45,0.24
		c-0.55,0.02-0.52-0.35-0.52-0.72c0-3.71,0.01-7.43-0.01-11.14c0-0.54,0.21-0.68,0.71-0.67c1.6,0.03,3.2-0.01,4.79,0.04
		c1.58,0.05,2.9,0.62,3.49,2.22C239.26,91.65,238.86,92.67,237.33,93.98z M233.82,98.08c0.72,0,1.24,0.04,1.75-0.01
		c0.74-0.07,1.33-0.43,1.36-1.25c0.04-0.84-0.44-1.38-1.27-1.46c-0.95-0.08-1.91-0.06-2.87-0.09c-0.26-0.01-0.51,0.04-0.51,0.36
		c-0.01,0.76-0.2,1.6,0.07,2.25C232.59,98.44,233.45,98.02,233.82,98.08z M234,90.41C234,90.41,234,90.41,234,90.41
		c-0.4,0-0.79,0-1.19,0c-0.31,0-0.48,0.1-0.55,0.46c-0.36,1.78-0.03,2.22,1.77,2.21c0.32,0,0.64,0.01,0.95-0.04
		c0.76-0.12,1.41-0.42,1.38-1.33c-0.03-0.97-0.69-1.25-1.53-1.29C234.56,90.4,234.28,90.41,234,90.41z"/>
	<path class="st1" d="M55.95,100.52c-0.69,0-1.44-0.03-2.17,0.01c-0.53,0.03-0.66-0.37-0.85-0.7c-0.62-1.07-1.29-2.11-1.84-3.22
		c-0.36-0.73-0.93-0.66-1.51-0.6c-0.71,0.08-0.4,0.67-0.42,1.04c-0.05,0.76-0.09,1.53,0,2.27c0.13,1.05-0.31,1.21-1.26,1.23
		c-1.11,0.03-1.39-0.29-1.37-1.39c0.08-3.4,0.05-6.79,0.01-10.19c-0.01-0.77,0.17-1.05,0.98-1.01c1.52,0.07,3.04-0.01,4.56,0.06
		c1.9,0.09,3.26,1.14,3.69,2.71c0.52,1.92-0.03,3.49-1.77,4.51c-0.67,0.39-0.45,0.64-0.2,1.07c0.75,1.31,1.49,2.63,2.23,3.95
		C56.04,100.31,56.01,100.36,55.95,100.52z M50.68,93.61c0.44-0.02,0.88,0.02,1.3-0.07c1.14-0.24,1.68-1.5,1.04-2.38
		c-0.41-0.57-3.13-1.05-3.71-0.65c-0.06,0.04-0.15,0.11-0.15,0.17c0,0.91-0.13,1.86,0.09,2.71C49.39,93.87,50.19,93.49,50.68,93.61z
		"/>
	<path class="st1" d="M141.23,100.36c-2.09,0.66-3.32-0.09-4.03-1.94c-0.24-0.63-0.72-1.16-0.98-1.78c-0.31-0.75-0.9-0.7-1.49-0.63
		c-0.79,0.1-0.39,0.75-0.43,1.15c-0.07,0.71-0.09,1.44,0,2.15c0.12,1.01-0.27,1.21-1.24,1.26c-1.22,0.06-1.43-0.36-1.4-1.47
		c0.08-3.35,0.06-6.71,0.01-10.07c-0.01-0.85,0.24-1.09,1.07-1.05c1.52,0.08,3.04-0.01,4.55,0.07c1.88,0.1,3.21,1.17,3.63,2.78
		c0.48,1.88-0.07,3.41-1.75,4.42c-0.59,0.36-0.55,0.58-0.26,1.07C139.69,97.65,140.45,99,141.23,100.36z M134.18,92
		c0.43,0.44-0.42,1.37,0.55,1.55c0.8,0.15,1.69,0.09,2.5-0.06c0.9-0.16,1.37-1.12,1.12-1.94c-0.3-0.96-1.51-1.35-3.49-1.1
		C133.76,90.59,134.54,91.47,134.18,92z"/>
	<path class="st1" d="M94.58,100.34c-2.13,0.7-3.33-0.12-4.02-1.95c-0.24-0.63-0.71-1.16-0.98-1.78c-0.33-0.73-0.94-0.67-1.51-0.6
		c-0.7,0.09-0.35,0.69-0.37,1.05c-0.05,0.88-0.05,1.76-0.01,2.64c0.03,0.61-0.14,0.9-0.79,0.83c-0.35-0.04-0.72-0.03-1.08,0
		c-0.54,0.05-0.78-0.09-0.77-0.71c0.03-3.72,0.02-7.43,0-11.15c0-0.51,0.12-0.7,0.66-0.69c1.64,0.04,3.28-0.02,4.91,0.06
		c1.93,0.09,3.22,1.17,3.66,2.89c0.46,1.79-0.09,3.29-1.74,4.3c-0.66,0.41-0.52,0.7-0.22,1.19C93.09,97.72,93.83,99.03,94.58,100.34
		z M89.15,93.59c0.33,0,0.57,0.01,0.81,0c1.15-0.06,1.88-0.69,1.81-1.63c-0.08-1.1-0.84-1.45-1.81-1.5c-0.56-0.03-1.12-0.02-1.68,0
		c-0.19,0.01-0.53,0.08-0.53,0.14c-0.04,0.91-0.21,1.87,0,2.73C87.91,93.95,88.74,93.42,89.15,93.59z"/>
	<path class="st1" d="M181.65,100.52c-0.45,0-0.7-0.04-0.93,0.01c-1.31,0.24-2.13-0.19-2.35-1.58c-0.12-0.75-0.57-1.02-1.35-0.98
		c-1.11,0.07-2.24,0.08-3.35,0c-0.93-0.07-1.35,0.27-1.61,1.14c-0.41,1.35-1.36,1.77-2.68,1.42c-0.49-0.13-0.28-0.38-0.2-0.62
		c1.45-3.81,2.9-7.62,4.35-11.43c0.13-0.35,0.33-0.47,0.7-0.51c2.41-0.27,2.55-0.19,3.43,2.11
		C178.96,93.52,180.27,96.94,181.65,100.52z M175.26,90.52c-0.38,1.02-0.65,1.72-0.91,2.43c-1.04,2.8-1.04,2.8,1.97,2.63
		c0.04,0,0.08,0,0.12,0c0.48,0.04,0.66-0.12,0.47-0.61C176.39,93.6,175.89,92.23,175.26,90.52z"/>
	<path class="st1" d="M228.1,100.49c-0.27,0.01-0.54-0.01-0.81,0.04c-1.26,0.24-2.04-0.2-2.26-1.51c-0.13-0.79-0.57-1.1-1.42-1.05
		c-1.23,0.08-2.47,0.05-3.71,0.01c-0.57-0.02-0.85,0.19-1.06,0.71c-0.81,1.97-0.83,1.96-3.11,1.77c-0.08-0.54,0.25-0.98,0.43-1.44
		c1.26-3.36,2.58-6.69,3.8-10.07c0.29-0.8,0.67-1.06,1.47-0.97c0.51,0.06,1.04,0.03,1.56,0.01c0.37-0.01,0.56,0.14,0.7,0.49
		c1.48,3.91,2.98,7.82,4.46,11.73C228.16,100.28,228.12,100.37,228.1,100.49z M221.89,90.53c-0.39,1.02-0.67,1.75-0.93,2.48
		c-1.02,2.76-1.02,2.74,1.97,2.58c0.58-0.03,0.81-0.15,0.57-0.76C222.99,93.5,222.51,92.17,221.89,90.53z"/>
	<path class="st1" d="M70.88,100.52c1.34-3.53,2.63-6.95,3.93-10.37c0.86-2.27,0.87-2.25,3.26-2.18c0.52,0.02,0.79,0.16,0.98,0.65
		c1.41,3.73,2.83,7.45,4.27,11.16c0.24,0.61,0.06,0.7-0.54,0.76c-1.29,0.13-2.27-0.06-2.48-1.59c-0.1-0.76-0.55-1.06-1.34-0.99
		c-0.71,0.07-1.45,0.09-2.15,0c-1.64-0.21-2.9,0.07-3.14,2.02c-0.05,0.42-0.34,0.57-0.77,0.54
		C72.27,100.5,71.64,100.52,70.88,100.52z M77.21,90.54c-0.38,1-0.67,1.73-0.95,2.47c-1.04,2.77-1.04,2.75,2.01,2.59
		c0.64-0.04,0.75-0.22,0.54-0.78C78.29,93.47,77.8,92.13,77.21,90.54z"/>
	<path class="st1" d="M278.59,94.22c0-1.76,0.03-3.52-0.02-5.27c-0.02-0.7,0.13-0.99,0.91-0.97c2.16,0.05,4.32,0.08,6.47,0
		c1.22-0.05,0.82,0.75,0.88,1.34c0.07,0.7,0.04,1.22-0.95,1.16c-1.31-0.09-2.64,0.03-3.95-0.04c-1.09-0.06-0.76,0.69-0.74,1.2
		c0.02,0.52-0.42,1.38,0.76,1.31c1.08-0.06,2.17,0.07,3.24-0.03c1.02-0.1,1.11,0.4,1.04,1.19c-0.06,0.67,0.25,1.49-0.99,1.36
		c-0.99-0.1-2,0.05-2.99-0.04c-0.95-0.09-1.2,0.29-1.08,1.14c0.04,0.27,0.03,0.56,0,0.84c-0.07,0.59,0.2,0.74,0.75,0.73
		c1.4-0.03,2.8,0.04,4.2-0.03c1.08-0.05,0.74,0.7,0.74,1.21c0,0.51,0.35,1.25-0.73,1.23c-2.24-0.05-4.48-0.04-6.71,0
		c-0.75,0.02-0.84-0.31-0.83-0.93C278.61,97.82,278.59,96.02,278.59,94.22z"/>
	<path class="st1" d="M251.25,94.3c0-1.8,0.02-3.6-0.01-5.39c-0.01-0.61,0.06-0.95,0.82-0.93c2.24,0.05,4.48,0.05,6.71,0.01
		c1.1-0.02,0.7,0.75,0.7,1.24c0.01,0.5,0.37,1.27-0.72,1.24c-1.36-0.05-2.72,0.06-4.07-0.03c-0.99-0.07-0.92,0.52-0.84,1.11
		c0.07,0.55-0.46,1.47,0.8,1.41c1.16-0.06,2.32,0.03,3.48-0.02c1.19-0.05,0.7,0.82,0.74,1.33c0.04,0.52,0.32,1.26-0.75,1.2
		c-1.11-0.07-2.24,0.03-3.35-0.03c-0.74-0.04-1.03,0.2-0.92,0.94c0.04,0.31,0.04,0.64,0,0.96c-0.07,0.63,0.16,0.83,0.8,0.81
		c1.36-0.05,2.72,0.05,4.07-0.04c1.03-0.07,0.87,0.57,0.82,1.14c-0.04,0.53,0.4,1.34-0.78,1.31c-2.24-0.06-4.48-0.04-6.71,0
		c-0.66,0.01-0.8-0.25-0.79-0.84C251.27,97.9,251.25,96.1,251.25,94.3z"/>
	<path class="st1" d="M192.59,94.25c0-1.8,0.03-3.6-0.01-5.39c-0.02-0.68,0.19-0.89,0.87-0.88c2.16,0.04,4.32,0.07,6.48-0.01
		c1.23-0.05,0.81,0.76,0.87,1.34c0.07,0.69,0.07,1.23-0.94,1.16c-1.31-0.1-2.64,0.03-3.96-0.04c-1.09-0.06-0.75,0.7-0.74,1.2
		c0.01,0.54-0.39,1.37,0.77,1.31c1.16-0.05,2.32,0.03,3.48-0.02c1.17-0.05,0.74,0.79,0.77,1.32c0.03,0.53,0.28,1.26-0.77,1.2
		c-1.12-0.06-2.24,0.03-3.36-0.03c-0.75-0.04-1.02,0.2-0.92,0.94c0.04,0.31,0.04,0.64,0,0.96c-0.07,0.63,0.18,0.83,0.81,0.81
		c1.36-0.04,2.72,0.05,4.08-0.03c1.05-0.07,0.82,0.62,0.78,1.16c-0.04,0.52,0.41,1.33-0.77,1.29c-2.2-0.07-4.4-0.05-6.6,0
		c-0.71,0.01-0.88-0.23-0.86-0.89C192.62,97.85,192.59,96.05,192.59,94.25z"/>
	<path class="st1" d="M121.07,94.26c0-1.8,0.03-3.6-0.01-5.39c-0.02-0.67,0.16-0.9,0.86-0.89c2.2,0.04,4.4,0.05,6.59,0
		c1.17-0.03,0.71,0.8,0.76,1.32c0.05,0.55,0.24,1.22-0.8,1.17c-1.35-0.08-2.72,0.01-4.07-0.03c-0.57-0.02-0.73,0.17-0.75,0.74
		c-0.05,1.75-0.08,1.75,1.65,1.75c0.72,0,1.44-0.03,2.16,0.01c0.41,0.02,1.04-0.27,1.17,0.24c0.16,0.63,0.09,1.35,0.01,2.01
		c-0.04,0.35-0.45,0.23-0.72,0.23c-1.12,0.01-2.24,0.06-3.36-0.01c-0.77-0.05-1,0.23-0.91,0.94c0.04,0.31,0.04,0.64,0,0.96
		c-0.07,0.61,0.14,0.83,0.79,0.81c1.36-0.05,2.72,0.04,4.07-0.03c1.18-0.07,0.75,0.75,0.79,1.28c0.04,0.55,0.23,1.19-0.8,1.16
		c-2.2-0.07-4.4-0.05-6.59-0.01c-0.7,0.01-0.88-0.22-0.86-0.89C121.1,97.85,121.07,96.06,121.07,94.26z"/>
	<path class="st1" d="M43.81,92.64c-0.08,1.26,0.15,2.78-0.18,4.29c-0.55,2.55-2.4,3.93-5.03,3.77c-2.96-0.19-4.66-1.6-4.81-4.3
		c-0.14-2.59-0.04-5.19-0.07-7.78c0-0.45,0.12-0.66,0.6-0.63c0.4,0.03,0.8,0.04,1.2,0c0.7-0.08,0.86,0.23,0.85,0.88
		c-0.03,2.27-0.04,4.55,0,6.83c0.03,1.61,0.95,2.47,2.47,2.44c1.43-0.03,2.32-0.9,2.35-2.45c0.05-2.15,0.11-4.32-0.01-6.46
		c-0.07-1.18,0.43-1.25,1.37-1.26c0.92-0.01,1.4,0.1,1.29,1.2C43.72,90.23,43.81,91.32,43.81,92.64z"/>
	<path class="st1" d="M62.27,94.24c0-1.8,0.03-3.59-0.01-5.39c-0.02-0.66,0.16-0.9,0.85-0.87c1.48,0.06,2.96-0.02,4.43,0.06
		c2.3,0.12,3.82,1.7,3.85,3.91c0.03,2.25-1.4,3.82-3.71,4.04c-0.44,0.04-0.89,0.13-1.31,0.06c-1.32-0.22-1.66,0.4-1.49,1.57
		c0.06,0.39,0.01,0.8,0.01,1.2c0,1.76-0.37,2.03-2.17,1.72c-0.59-0.1-0.44-0.47-0.44-0.79C62.27,97.92,62.27,96.08,62.27,94.24z
		 M64.91,91.83c0,0.99-0.39,1.98,1.21,1.85C68,93.54,68.8,93.16,68.77,92c-0.03-1.08-0.8-1.45-2.5-1.58
		C64.94,90.31,64.65,90.84,64.91,91.83z"/>
	<path class="st1" d="M100.45,87.99c1.4,0,2.8,0.06,4.2-0.02c1.06-0.06,0.82,0.65,0.77,1.18c-0.05,0.51,0.46,1.42-0.73,1.33
		c-0.08-0.01-0.16,0-0.24,0c-2.79,0.04-2.79,0.04-2.79,2.89c0,2.08-0.06,4.16,0.03,6.23c0.04,1.04-0.53,0.98-1.19,0.91
		c-0.61-0.07-1.48,0.42-1.44-0.9c0.08-2.71-0.01-5.43,0.04-8.15c0.01-0.8-0.23-1.08-1.01-0.99c-0.51,0.06-1.05-0.06-1.56,0.02
		c-1.06,0.17-1.19-0.31-1.23-1.25c-0.04-1.09,0.3-1.35,1.32-1.27C97.89,88.07,99.18,87.99,100.45,87.99z"/>
	<path class="st1" d="M7.05,88.09c2.06-0.46,3.43,0.03,4.17,2.01c0.35,0.95,1,1.79,1.63,2.88c0.73-1.24,1.48-2.31,2.01-3.48
		c0.56-1.24,1.38-1.73,2.69-1.51c0.31,0.05,0.63,0.01,1.16,0.01c-0.9,1.47-1.63,2.89-2.57,4.13c-1.61,2.14-2.39,4.44-2.03,7.12
		c0.05,0.39,0.26,1.07-0.19,1.19c-0.67,0.18-1.42,0.1-2.13,0.02c-0.35-0.04-0.26-0.47-0.21-0.71c0.62-3.35-0.88-6.01-2.68-8.61
		C8.25,90.19,7.7,89.18,7.05,88.09z"/>
	<path class="st1" d="M308.28,95.53c0,1.4-0.03,2.8,0.01,4.19c0.02,0.61-0.14,0.81-0.79,0.82c-1.81,0.02-1.81,0.06-1.81-1.73
		c0-2.44-0.04-4.87,0.02-7.31c0.02-0.86-0.26-1.13-1.08-1.04c-0.47,0.06-0.97-0.05-1.44,0.02c-0.99,0.14-1.26-0.22-1.27-1.22
		c-0.01-1.05,0.25-1.34,1.32-1.3c2.63,0.09,5.27,0.08,7.91,0c1.03-0.03,0.96,0.53,0.91,1.19c-0.05,0.6,0.33,1.49-0.88,1.32
		c-0.04-0.01-0.08,0-0.12,0c-0.9,0.08-2.13-0.41-2.61,0.22c-0.45,0.59-0.15,1.76-0.16,2.67C308.27,94.09,308.28,94.81,308.28,95.53z
		"/>
	<path class="st1" d="M241.6,94.3c0-1.8,0.04-3.59-0.02-5.39c-0.02-0.75,0.21-0.94,0.94-0.93c1.69,0.02,1.69-0.02,1.69,1.71
		c0,2.4,0.04,4.79-0.02,7.19c-0.02,0.89,0.15,1.3,1.16,1.21c1.11-0.1,2.24,0,3.35-0.03c0.56-0.02,0.84,0.06,0.86,0.75
		c0.03,1.71,0.07,1.71-1.68,1.71c-1.68,0-3.36-0.06-5.03,0.02c-0.96,0.05-1.33-0.17-1.27-1.21C241.66,97.66,241.6,95.98,241.6,94.3z
		"/>
	<path class="st1" d="M185.66,94.32c0,1.76-0.03,3.52,0.02,5.28c0.02,0.73-0.17,0.98-0.93,0.95c-2.1-0.08-1.67,0.22-1.68-1.72
		c-0.03-3.24,0.06-6.48-0.04-9.71c-0.04-1.19,0.54-1.1,1.36-1.13c0.9-0.03,1.38,0.07,1.31,1.18
		C185.58,90.87,185.66,92.6,185.66,94.32z"/>
	<path class="st1" d="M147.4,94.31c0-1.79,0.03-3.59-0.02-5.38c-0.02-0.7,0.13-0.96,0.9-0.95c1.71,0.03,1.71-0.02,1.71,1.69
		c0,3.31-0.05,6.61,0.03,9.92c0.03,1.28-0.77,0.89-1.4,0.93c-0.67,0.04-1.32,0.16-1.25-0.96C147.47,97.82,147.4,96.06,147.4,94.31z"
		/>
	<path class="st0" d="M239.27,70.63c-5.57-0.13-9.71-4.65-9.57-10.43c0.13-5.26,4.7-9.64,9.92-9.5c5.42,0.14,9.72,4.72,9.6,10.22
		C249.1,66.38,244.62,70.75,239.27,70.63z"/>
	<path class="st0" d="M126.22,60.62c0-2.88,0.03-5.76-0.02-8.63c-0.01-0.79,0.22-1.02,1.01-1.01c2.04,0.04,4.08,0,6.08,0.48
		c4.65,1.12,7.43,4.85,7.23,9.68c-0.2,4.77-3.37,8.15-8.28,8.93c-1.63,0.26-3.26,0.23-4.9,0.29c-0.88,0.04-1.17-0.18-1.15-1.11
		C126.27,66.37,126.22,63.5,126.22,60.62z"/>
	<path class="st0" d="M267.88,55.08c0-1.08,0.02-2.16-0.01-3.23c-0.02-0.59,0.12-0.88,0.79-0.86c1.99,0.08,3.99-0.11,5.99,0.13
		c2.28,0.28,3.59,1.57,3.72,3.67c0.12,2.01-1.02,3.5-3.18,4.01c-2.24,0.53-4.54,0.19-6.81,0.27c-0.57,0.02-0.48-0.41-0.48-0.75
		C267.88,57.24,267.88,56.16,267.88,55.08z"/>
	<path class="st0" d="M99.86,51.19c1.64,4.43,3.18,8.56,4.75,12.8c-3.2,0-6.29,0-9.5,0C96.67,59.81,98.21,55.65,99.86,51.19z"/>
	<path class="st0" d="M25.15,98.14c-2.1-0.02-3.79-1.79-3.79-3.96c0-2.15,1.76-3.88,3.89-3.85c2.13,0.03,3.82,1.79,3.78,3.96
		C28.99,96.45,27.27,98.16,25.15,98.14z"/>
	<path class="st0" d="M233.82,98.08c-0.37-0.06-1.23,0.36-1.46-0.2c-0.27-0.65-0.08-1.49-0.07-2.25c0-0.32,0.25-0.37,0.51-0.36
		c0.96,0.02,1.92,0,2.87,0.09c0.83,0.07,1.31,0.62,1.27,1.46c-0.04,0.82-0.62,1.18-1.36,1.25
		C235.06,98.12,234.54,98.08,233.82,98.08z"/>
	<path class="st0" d="M234,90.41c0.28,0,0.56-0.01,0.83,0c0.84,0.04,1.5,0.33,1.53,1.29c0.03,0.92-0.62,1.21-1.38,1.33
		c-0.31,0.05-0.63,0.03-0.95,0.04c-1.8,0.01-2.13-0.43-1.77-2.21c0.07-0.36,0.24-0.46,0.55-0.46C233.2,90.41,233.6,90.41,234,90.41
		C234,90.41,234,90.41,234,90.41z"/>
	<path class="st0" d="M50.68,93.61c-0.49-0.12-1.29,0.26-1.42-0.23c-0.22-0.85-0.09-1.8-0.09-2.71c0-0.06,0.09-0.13,0.15-0.17
		c0.58-0.4,3.3,0.09,3.71,0.65c0.63,0.88,0.1,2.14-1.04,2.38C51.56,93.63,51.12,93.59,50.68,93.61z"/>
	<path class="st0" d="M134.18,92c0.36-0.53-0.42-1.41,0.68-1.55c1.97-0.25,3.19,0.14,3.49,1.1c0.26,0.83-0.21,1.78-1.12,1.94
		c-0.82,0.15-1.7,0.21-2.5,0.06C133.76,93.37,134.61,92.44,134.18,92z"/>
	<path class="st0" d="M89.15,93.59c-0.41-0.17-1.24,0.36-1.39-0.27c-0.21-0.86-0.04-1.81,0-2.73c0-0.06,0.34-0.13,0.53-0.14
		c0.56-0.02,1.12-0.03,1.68,0c0.97,0.05,1.73,0.4,1.81,1.5c0.07,0.94-0.66,1.57-1.81,1.63C89.72,93.6,89.48,93.59,89.15,93.59z"/>
	<path class="st0" d="M175.26,90.52c0.63,1.71,1.13,3.08,1.65,4.44c0.19,0.5,0.01,0.65-0.47,0.61c-0.04,0-0.08,0-0.12,0
		c-3.02,0.17-3.02,0.17-1.97-2.63C174.61,92.24,174.88,91.54,175.26,90.52z"/>
	<path class="st0" d="M221.89,90.53c0.61,1.63,1.1,2.97,1.61,4.3c0.23,0.61,0.01,0.72-0.57,0.76c-2.99,0.17-2.99,0.18-1.97-2.58
		C221.23,92.28,221.51,91.55,221.89,90.53z"/>
	<path class="st0" d="M77.21,90.54c0.59,1.59,1.09,2.94,1.6,4.28c0.21,0.56,0.1,0.74-0.54,0.78c-3.04,0.17-3.04,0.19-2.01-2.59
		C76.53,92.27,76.82,91.53,77.21,90.54z"/>
	<path class="st0" d="M64.91,91.83c-0.25-0.99,0.03-1.52,1.36-1.42c1.71,0.13,2.47,0.5,2.5,1.58c0.03,1.16-0.77,1.54-2.65,1.69
		C64.52,93.82,64.91,92.82,64.91,91.83z"/>
</g>
</svg>
