<svg xmlns="http://www.w3.org/2000/svg" viewBox="0 0 280 90">
  <!-- SM Advisors full logo: icon + text + tagline -->

  <!-- Starburst icon centered at 38,38 -->
  <g transform="translate(38,38)">
    <polygon
      fill="#dd4124"
      points="
        0,-36
        4.4,-15.2
        10.2,-31.2
        10.9,-10.4
        25.5,-25.5
        15.3,-7.1
        36,-10.2
        17.0,-1.1
        36,0
        17.0,1.1
        31.2,10.2
        13.3,6.4
        25.5,25.5
        7.1,15.3
        10.2,31.2
        1.1,17.0
        0,36
        -1.1,17.0
        -10.2,31.2
        -7.1,15.3
        -25.5,25.5
        -13.3,6.4
        -31.2,10.2
        -17.0,1.1
        -36,0
        -17.0,-1.1
        -31.2,-10.2
        -15.3,-7.1
        -25.5,-25.5
        -10.9,-10.4
        -10.2,-31.2
        -4.4,-15.2
      "
    />
    <circle r="12" fill="#ffffff"/>
    <circle r="6.8" fill="#dd4124"/>
  </g>

  <!-- "SM ADVISORS" main text -->
  <text
    x="86"
    y="42"
    font-family="Montserrat, Arial, sans-serif"
    font-weight="700"
    font-size="22"
    fill="#202735"
    letter-spacing="2.5"
  >SM ADVISORS</text>

  <!-- Tagline -->
  <text
    x="87"
    y="61"
    font-family="Montserrat, Arial, sans-serif"
    font-weight="500"
    font-size="9"
    fill="#dd4124"
    letter-spacing="2"
  >YOUR PARTNER IN AI ENABLEMENT</text>
</svg>
